<?xml version="1.0" encoding="UTF-8" standalone="no"?>
<!DOCTYPE svg PUBLIC "-//W3C//DTD SVG 1.1//EN" "http://www.w3.org/Graphics/SVG/1.1/DTD/svg11.dtd">
<svg width="100%" height="100%" viewBox="0 0 1129 663" version="1.1" xmlns="http://www.w3.org/2000/svg" xmlns:xlink="http://www.w3.org/1999/xlink" xml:space="preserve" xmlns:serif="http://www.serif.com/" style="fill-rule:evenodd;clip-rule:evenodd;stroke-linejoin:round;stroke-miterlimit:2;">
    <circle cx="321" cy="321" r="321" style="fill:rgb(242,242,242);"/>
    <ellipse cx="559" cy="635.5" rx="514" ry="27.5" style="fill:rgb(63,61,86);"/>
    <ellipse cx="558" cy="627" rx="460" ry="22" style="fill-opacity:0.2;"/>
    <rect x="131" y="152.5" width="840" height="50" style="fill:rgb(63,61,86);"/>
    <g transform="matrix(1,0,0,1,-35.5,-118.5)">
        <path d="M166.5,296C166.5,296 166.5,727.33 166.5,727.33C166.5,739.218 176.282,749 188.17,749L984.83,749C996.718,749 1006.5,739.218 1006.5,727.33C1006.5,727.33 1006.5,296 1006.5,296L166.5,296Z" style="fill:rgb(80,71,102);fill-rule:nonzero;"/>
    </g>
    <g transform="matrix(1,0,0,1,-35.5,-118.5)">
        <path d="M984.83,236L188.17,236C176.282,236 166.5,245.782 166.5,257.67C166.5,257.67 166.5,296 166.5,296L1006.5,296C1006.5,296 1006.5,257.67 1006.5,257.67C1006.5,245.782 996.718,236 984.83,236Z" style="fill:rgb(63,61,86);fill-rule:nonzero;"/>
    </g>
    <g transform="matrix(1,0,0,1,-35.5,-118.5)">
        <path d="M984.83,236L188.17,236C176.282,236 166.5,245.782 166.5,257.67C166.5,257.67 166.5,296 166.5,296L1006.5,296C1006.5,296 1006.5,257.67 1006.5,257.67C1006.5,245.782 996.718,236 984.83,236Z" style="fill-opacity:0.2;fill-rule:nonzero;"/>
    </g>
    <circle cx="181" cy="147.5" r="13" style="fill:rgb(63,61,86);"/>
    <circle cx="217" cy="147.5" r="13" style="fill:rgb(63,61,86);"/>
    <circle cx="253" cy="147.5" r="13" style="fill:rgb(63,61,86);"/>
    <path d="M505,218.835C505,215.891 502.609,213.5 499.665,213.5L173.335,213.5C170.391,213.5 168,215.891 168,218.835L168,594.165C168,597.109 170.391,599.5 173.335,599.5L499.665,599.5C502.609,599.5 505,597.109 505,594.165L505,218.835Z" style="fill:rgb(107,94,131);"/>
    <path d="M887,277.976C887,274.954 884.546,272.5 881.524,272.5L608.476,272.5C605.454,272.5 603,274.954 603,277.976L603,289.024C603,292.046 605.454,294.5 608.476,294.5L881.524,294.5C884.546,294.5 887,292.046 887,289.024L887,277.976Z" style="fill:rgb(248,147,112);"/>
    <path d="M953,357.976C953,354.954 950.546,352.5 947.524,352.5L542.476,352.5C539.454,352.5 537,354.954 537,357.976L537,362.024C537,365.046 539.454,367.5 542.476,367.5L947.524,367.5C950.546,367.5 953,365.046 953,362.024L953,357.976Z" style="fill:rgb(248,147,112);"/>
    <path d="M953,401.976C953,398.954 950.546,396.5 947.524,396.5L542.476,396.5C539.454,396.5 537,398.954 537,401.976L537,406.024C537,409.046 539.454,411.5 542.476,411.5L947.524,411.5C950.546,411.5 953,409.046 953,406.024L953,401.976Z" style="fill:rgb(248,147,112);"/>
    <path d="M953,445.976C953,442.954 950.546,440.5 947.524,440.5L542.476,440.5C539.454,440.5 537,442.954 537,445.976L537,450.024C537,453.046 539.454,455.5 542.476,455.5L947.524,455.5C950.546,455.5 953,453.046 953,450.024L953,445.976Z" style="fill:rgb(248,147,112);"/>
    <path d="M953,489.976C953,486.954 950.546,484.5 947.524,484.5L542.476,484.5C539.454,484.5 537,486.954 537,489.976L537,494.024C537,497.046 539.454,499.5 542.476,499.5L947.524,499.5C950.546,499.5 953,497.046 953,494.024L953,489.976Z" style="fill:rgb(248,147,112);"/>
    <path d="M953,559.528C953,555.649 949.851,552.5 945.972,552.5L872.028,552.5C868.149,552.5 865,555.649 865,559.528L865,571.472C865,575.351 868.149,578.5 872.028,578.5L945.972,578.5C949.851,578.5 953,575.351 953,571.472L953,559.528Z" style="fill:rgb(251,115,172);"/>
    <g transform="matrix(0.306662,0,0,0.306662,161.128,232.438)">
        <path d="M956.743,567.602C956.743,355.185 784.289,182.731 571.872,182.731C359.456,182.731 187.001,355.185 187.001,567.602C187.001,780.018 359.456,952.473 571.872,952.473C784.289,952.473 956.743,780.018 956.743,567.602Z" style="fill:rgb(220,216,227);"/>
        <clipPath id="_clip1">
            <path d="M956.743,567.602C956.743,355.185 784.289,182.731 571.872,182.731C359.456,182.731 187.001,355.185 187.001,567.602C187.001,780.018 359.456,952.473 571.872,952.473C784.289,952.473 956.743,780.018 956.743,567.602Z"/>
        </clipPath>
        <g clip-path="url(#_clip1)">
            <g transform="matrix(0.895452,0,0,2.52977,106.227,-117.935)">
                <rect x="90.205" y="118.851" width="859.613" height="304.273" style="fill:rgb(220,216,227);"/>
            </g>
        </g>
    </g>
    <g transform="matrix(3.80996,0,0,3.80996,333.127,407.113)">
        <g transform="matrix(1,0,0,1,-18.5,-18.5)">
            <g transform="matrix(1,0,0,1,0,75)">
                <text x="0px" y="0px" style="font-family:'Helvetica';font-size:100px;fill:url(#_Linear2);">*</text>
            </g>
        </g>
    </g>
    <g transform="matrix(1,0,0,1,-35.5,-118.5)">
        <path d="M1088.6,624.616C1091.26,619.972 1092.64,614.702 1092.59,609.35C1092.59,595.553 1084.04,584.369 1073.5,584.369C1062.96,584.369 1054.42,595.553 1054.42,609.35C1054.37,614.702 1055.74,619.972 1058.4,624.616C1053.1,634.09 1053.1,645.674 1058.4,655.148C1053.1,664.622 1053.1,676.206 1058.4,685.68C1053.1,695.154 1053.1,706.738 1058.4,716.212C1055.74,720.856 1054.37,726.126 1054.42,731.478C1054.42,745.275 1062.96,756.459 1073.5,756.459C1084.04,756.459 1092.59,745.275 1092.59,731.478C1092.64,726.126 1091.26,720.856 1088.6,716.212C1093.91,706.738 1093.91,695.154 1088.6,685.68C1093.91,676.206 1093.91,664.622 1088.6,655.148C1093.91,645.674 1093.91,634.09 1088.6,624.616Z" style="fill:rgb(63,61,86);fill-rule:nonzero;"/>
    </g>
    <ellipse cx="1038" cy="460.318" rx="19.083" ry="24.981" style="fill:rgb(63,61,86);"/>
    <ellipse cx="1038" cy="429.786" rx="19.083" ry="24.981" style="fill:rgb(63,61,86);"/>
    <g transform="matrix(1,0,0,1,-35.5,-118.5)">
        <path d="M1144.94,339.345C1147.55,336.026 1149.92,332.53 1152.05,328.884L1101.9,320.649L1156.13,321.052C1166.64,298.187 1167.27,271.971 1157.88,248.626L1085.12,286.368L1152.22,237.047C1135.9,208.843 1105.69,191.42 1073.1,191.42C1022.95,191.42 981.689,232.685 981.689,282.833C981.689,303.326 988.58,323.237 1001.25,339.345C997.186,344.511 993.691,350.099 990.825,356.014L1055.91,389.829L986.511,366.537C976.621,395.773 982.174,428.111 1001.25,452.374C988.58,468.481 981.688,488.39 981.688,508.884C981.688,559.027 1022.95,600.289 1073.09,600.289C1123.24,600.289 1164.5,559.027 1164.5,508.884C1164.5,488.39 1157.61,468.481 1144.94,452.374C1170.93,419.323 1170.93,372.396 1144.94,339.345Z" style="fill:rgb(251,115,172);"/>
    </g>
    <g transform="matrix(1,0,0,1,-35.5,-118.5)">
        <path d="M981.689,395.859C981.657,416.359 988.552,436.28 1001.25,452.374C988.58,468.481 981.688,488.39 981.688,508.884C981.688,559.027 1022.95,600.289 1073.09,600.289C1123.24,600.289 1164.5,559.027 1164.5,508.884C1164.5,488.39 1157.61,468.481 1144.94,452.374C1157.19,436.821 981.689,385.6 981.689,395.859Z" style="fill-opacity:0.1;fill-rule:nonzero;"/>
    </g>
    <defs>
        <linearGradient id="_Linear2" x1="0" y1="0" x2="1" y2="0" gradientUnits="userSpaceOnUse" gradientTransform="matrix(37,37,-37,37,0,-75)"><stop offset="0" style="stop-color:rgb(242,195,23);stop-opacity:1"/><stop offset="1" style="stop-color:rgb(255,81,232);stop-opacity:1"/></linearGradient>
    </defs>
</svg>
