<?xml version="1.0" encoding="UTF-8" standalone="no"?>
<!DOCTYPE svg PUBLIC "-//W3C//DTD SVG 1.1//EN" "http://www.w3.org/Graphics/SVG/1.1/DTD/svg11.dtd">
<svg width="100%" height="100%" viewBox="0 0 1088 688" version="1.1" xmlns="http://www.w3.org/2000/svg" xmlns:xlink="http://www.w3.org/1999/xlink" xml:space="preserve" xmlns:serif="http://www.serif.com/" style="fill-rule:evenodd;clip-rule:evenodd;stroke-linejoin:round;stroke-miterlimit:2;">
    <g transform="matrix(1,0,0,1,-57,-56)">
        <g id="Group_12">
            <g id="Group_11" transform="matrix(1,0,0,1,57,56)">
                <g id="Path_83" transform="matrix(1,0,0,1,-56,-106.019)">
                    <path d="M1017.81,560.461C1012.54,605.611 1001.59,641.861 986.56,670.771C966.56,709.291 932.35,724.811 901.79,741.051C892.959,745.735 883.778,749.727 874.33,752.991C818.72,772.291 756.48,767.171 707.59,756.981C673.299,749.828 638.492,745.427 603.5,743.821C593.52,743.371 583.53,743.148 573.53,743.151C558.11,743.171 280.46,748.441 212.86,611.581C196.17,577.821 184.73,536.581 180.62,486.311C168.99,344.191 232.91,250.851 315.36,189.841C471.33,74.431 685.12,79.271 838.79,197.721C941.15,276.621 1036.99,396.031 1017.81,560.461Z" style="fill:rgb(63,61,86);fill-rule:nonzero;"/>
                </g>
                <g id="Path_84" transform="matrix(1,0,0,1,-56,-106.019)">
                    <path d="M986.56,670.771C966.56,709.291 939.35,734.811 908.79,751.051C899.959,755.735 890.778,759.727 881.33,762.991C825.72,782.291 763.48,777.171 714.59,766.981C680.299,759.828 645.492,755.427 610.5,753.821C600.52,753.371 590.53,753.148 580.53,753.151C565.11,753.171 549.693,753.744 534.28,754.871C434.11,762.231 280.46,748.441 212.86,611.581L382,283.981L444.95,445.6L465.04,497.19L520.41,421.21L549,381.981L679.2,531.251L716,449.981L970.78,657.9L984.99,669.49L986.56,670.771Z" style="fill:rgb(242,242,242);fill-rule:nonzero;"/>
                </g>
                <path id="Path_85" d="M302,282.962L328,225.962L364,308.962L333,248.962L302,282.962Z" style="fill-opacity:0.1;fill-rule:nonzero;"/>
                <g id="Path_86" transform="matrix(1,0,0,1,-56,-106.019)">
                    <path d="M610.5,753.821C600.52,753.371 590.53,753.148 580.53,753.151L465.04,497.191L610.5,753.821Z" style="fill-opacity:0.1;fill-rule:nonzero;"/>
                </g>
                <path id="Path_87" d="M464.411,315.191L493,292.962L623,442.962L491,314.962L464.411,315.191Z" style="fill-opacity:0.1;fill-rule:nonzero;"/>
                <g id="Path_88" transform="matrix(1,0,0,1,-56,-106.019)">
                    <path d="M908.79,751.051C899.959,755.735 890.778,759.727 881.33,762.991L679.2,531.251L908.79,751.051Z" style="fill-opacity:0.1;fill-rule:nonzero;"/>
                </g>
                <g id="Ellipse_11" transform="matrix(1,0,0,1,479,98.962)">
                    <circle cx="3" cy="3" r="3" style="fill:rgb(242,242,242);"/>
                </g>
                <g id="Ellipse_12" transform="matrix(1,0,0,1,396,201.962)">
                    <circle cx="3" cy="3" r="3" style="fill:rgb(242,242,242);"/>
                </g>
                <g id="Ellipse_13" transform="matrix(1,0,0,1,600,220.962)">
                    <circle cx="2" cy="2" r="2" style="fill:rgb(242,242,242);"/>
                </g>
                <g id="Ellipse_14" transform="matrix(1,0,0,1,180,265.962)">
                    <circle cx="2" cy="2" r="2" style="fill:rgb(242,242,242);"/>
                </g>
                <g id="Ellipse_15" transform="matrix(1,0,0,1,612,96.962)">
                    <circle cx="2" cy="2" r="2" style="fill:rgb(242,242,242);"/>
                </g>
                <g id="Ellipse_16" transform="matrix(1,0,0,1,736,192.962)">
                    <circle cx="2" cy="2" r="2" style="fill:rgb(242,242,242);"/>
                </g>
                <g id="Ellipse_17" transform="matrix(1,0,0,1,858,344.962)">
                    <circle cx="2" cy="2" r="2" style="fill:rgb(242,242,242);"/>
                </g>
                <path id="Path_89" d="M306,121.222L303.24,121.222L303.24,118.462L301.76,118.462L301.76,121.222L299,121.222L299,122.7L301.76,122.7L301.76,125.459L303.24,125.459L303.24,122.7L306,122.7L306,121.222Z" style="fill:rgb(242,242,242);fill-rule:nonzero;"/>
                <path id="Path_90" d="M848,424.222L845.24,424.222L845.24,421.462L843.76,421.462L843.76,424.222L841,424.222L841,425.7L843.76,425.7L843.76,428.459L845.24,428.459L845.24,425.7L848,425.7L848,424.222Z" style="fill:rgb(242,242,242);fill-rule:nonzero;"/>
                <g id="Path_91" transform="matrix(1,0,0,1,-56,-106.019)">
                    <path d="M1144,719.981C1144,736.55 900.443,793.981 600,793.981C299.557,793.981 56,736.55 56,719.981C56,703.412 299.557,733.981 600,733.981C900.443,733.981 1144,703.413 1144,719.981Z" style="fill:rgb(63,61,86);fill-rule:nonzero;"/>
                </g>
                <g id="Path_92" transform="matrix(1,0,0,1,-56,-106.019)">
                    <path d="M1144,719.981C1144,736.55 900.443,793.981 600,793.981C299.557,793.981 56,736.55 56,719.981C56,703.412 299.557,733.981 600,733.981C900.443,733.981 1144,703.413 1144,719.981Z" style="fill-opacity:0.1;fill-rule:nonzero;"/>
                </g>
                <g id="Ellipse_18" transform="matrix(1,0,0,1,0,583.962)">
                    <ellipse cx="544" cy="30" rx="544" ry="30" style="fill:rgb(63,61,86);"/>
                </g>
                <g id="Path_93" transform="matrix(1,0,0,1,-56,-106.019)">
                    <path d="M624,677.981C624,711.118 609.225,701.981 591,701.981C572.775,701.981 558,711.118 558,677.981C558,644.844 591,581.981 591,581.981C591,581.981 624,644.844 624,677.981Z" style="fill:rgb(255,101,132);fill-rule:nonzero;"/>
                </g>
                <g id="Path_94" transform="matrix(1,0,0,1,-56,-106.019)">
                    <path d="M606,690.66C606,705.722 599.284,701.569 591,701.569C582.716,701.569 576,705.722 576,690.66C576,675.598 591,647.024 591,647.024C591,647.024 606,675.6 606,690.66Z" style="fill-opacity:0.1;fill-rule:nonzero;"/>
                </g>
                <g id="Rectangle_97" transform="matrix(1,0,0,1,489,604.962)">
                    <path d="M92,9C92,4.033 87.967,0 83,0L9,0C4.033,0 0,4.033 0,9C0,13.967 4.033,18 9,18L83,18C87.967,18 92,13.967 92,9Z" style="fill:rgb(47,46,65);"/>
                </g>
                <g id="Rectangle_98" transform="matrix(1,0,0,1,489,586.962)">
                    <path d="M92,9C92,4.033 87.967,0 83,0L9,0C4.033,0 0,4.033 0,9C0,13.967 4.033,18 9,18L83,18C87.967,18 92,13.967 92,9Z" style="fill:rgb(47,46,65);"/>
                </g>
                <g id="Path_95" transform="matrix(1,0,0,1,-56,-106.019)">
                    <path d="M193,596.547C193,651.89 227.719,696.673 270.626,696.673" style="fill:rgb(63,61,86);fill-rule:nonzero;"/>
                </g>
                <g id="Path_96" transform="matrix(1,0,0,1,-56,-106.019)">
                    <path d="M270.626,696.673C270.626,640.708 309.371,595.422 357.252,595.422" style="fill:rgb(108,99,255);fill-rule:nonzero;"/>
                </g>
                <g id="Path_97" transform="matrix(1,0,0,1,-56,-106.019)">
                    <path d="M221.125,601.564C221.125,654.134 243.265,696.673 270.625,696.673" style="fill:rgb(108,99,255);fill-rule:nonzero;"/>
                </g>
                <g id="Path_98" transform="matrix(1,0,0,1,-56,-106.019)">
                    <path d="M270.626,696.673C270.626,625.162 315.409,567.296 370.752,567.296" style="fill:rgb(63,61,86);fill-rule:nonzero;"/>
                </g>
                <g id="Path_99" transform="matrix(1,0,0,1,-56,-106.019)">
                    <path d="M254.3,697.379C254.3,697.379 265.309,697.04 268.626,694.679C271.943,692.318 285.56,689.496 286.383,693.284C287.206,697.072 302.927,712.128 290.498,712.229C278.069,712.33 261.619,710.293 258.308,708.276C254.997,706.259 254.3,697.379 254.3,697.379Z" style="fill:rgb(168,168,168);fill-rule:nonzero;"/>
                </g>
                <g id="Path_100" transform="matrix(1,0,0,1,-56,-106.019)">
                    <path d="M290.716,710.909C278.287,711.009 261.837,708.973 258.526,706.956C256.004,705.42 254.999,699.908 254.663,697.365L254.295,697.379C254.295,697.379 254.995,706.258 258.304,708.279C261.613,710.3 278.065,712.332 290.494,712.232C294.082,712.203 295.321,710.927 295.253,709.032C294.755,710.174 293.386,710.887 290.716,710.909Z" style="fill-opacity:0.2;fill-rule:nonzero;"/>
                </g>
                <g id="Path_101" transform="matrix(1,0,0,1,-56,-106.019)">
                    <path d="M777.429,633.081C777.429,671.11 801.286,701.881 830.77,701.881" style="fill:rgb(63,61,86);fill-rule:nonzero;"/>
                </g>
                <g id="Path_102" transform="matrix(1,0,0,1,-56,-106.019)">
                    <path d="M830.769,701.882C830.769,663.426 857.392,632.307 890.294,632.307" style="fill:rgb(108,99,255);fill-rule:nonzero;"/>
                </g>
                <g id="Path_103" transform="matrix(1,0,0,1,-56,-106.019)">
                    <path d="M796.755,636.528C796.755,672.652 811.968,701.882 830.769,701.882" style="fill:rgb(108,99,255);fill-rule:nonzero;"/>
                </g>
                <g id="Path_104" transform="matrix(1,0,0,1,-56,-106.019)">
                    <path d="M830.769,701.882C830.769,652.743 861.542,612.982 899.569,612.982" style="fill:rgb(63,61,86);fill-rule:nonzero;"/>
                </g>
                <g id="Path_105" transform="matrix(1,0,0,1,-56,-106.019)">
                    <path d="M819.548,702.367C819.548,702.367 827.113,702.134 829.392,700.511C831.671,698.888 841.028,696.949 841.592,699.553C842.156,702.157 852.96,712.502 844.42,712.571C835.88,712.64 824.576,711.241 822.301,709.855C820.026,708.469 819.548,702.367 819.548,702.367Z" style="fill:rgb(168,168,168);fill-rule:nonzero;"/>
                </g>
                <g id="Path_106" transform="matrix(1,0,0,1,-56,-106.019)">
                    <path d="M844.574,711.664C836.034,711.733 824.73,710.334 822.455,708.948C820.722,707.892 820.032,704.105 819.801,702.358L819.548,702.368C819.548,702.368 820.027,708.468 822.303,709.855C824.579,711.242 835.882,712.64 844.422,712.571C846.887,712.551 847.739,711.671 847.692,710.371C847.349,711.159 846.409,711.649 844.574,711.664Z" style="fill-opacity:0.2;fill-rule:nonzero;"/>
                </g>
                <g id="Path_107" transform="matrix(1,0,0,1,-56,-106.019)">
                    <path d="M949.813,724.718C949.813,724.718 961.173,722.989 964.313,720.127C967.453,717.265 981.203,712.639 982.53,716.46C983.857,720.281 1002.02,733.907 989.163,735.567C976.302,737.227 959.01,737.176 955.328,735.502C951.646,733.828 949.813,724.718 949.813,724.718Z" style="fill:rgb(168,168,168);fill-rule:nonzero;"/>
                </g>
                <g id="Path_108" transform="matrix(1,0,0,1,-56,-106.019)">
                    <path d="M989.228,734.173C976.368,735.832 959.075,735.782 955.393,734.108C952.593,732.833 950.858,727.25 950.193,724.658L949.814,724.719C949.814,724.719 951.647,733.828 955.33,735.502C959.013,737.176 976.305,737.227 989.165,735.567C992.877,735.088 994.001,733.611 993.694,731.661C993.319,732.907 991.991,733.817 989.228,734.173Z" style="fill-opacity:0.2;fill-rule:nonzero;"/>
                </g>
                <g id="Path_109" transform="matrix(1,0,0,1,-56,-106.019)">
                    <path d="M670.26,723.9C670.26,723.9 679.847,722.441 682.497,720.025C685.147,717.609 696.752,713.705 697.871,716.93C698.99,720.155 714.323,731.655 703.471,733.055C692.619,734.455 678.023,734.413 674.916,733C671.809,731.587 670.26,723.9 670.26,723.9Z" style="fill:rgb(168,168,168);fill-rule:nonzero;"/>
                </g>
                <g id="Path_110" transform="matrix(1,0,0,1,-56,-106.019)">
                    <path d="M703.524,731.875C692.671,733.275 678.076,733.233 674.969,731.82C672.602,730.744 671.142,726.032 670.579,723.844L670.259,723.895C670.259,723.895 671.806,731.582 674.914,732.995C678.022,734.408 692.614,734.451 703.469,733.05C706.602,732.65 707.55,731.399 707.291,729.75C706.977,730.807 705.856,731.575 703.524,731.875Z" style="fill-opacity:0.2;fill-rule:nonzero;"/>
                </g>
                <g id="Path_111" transform="matrix(1,0,0,1,-56,-106.019)">
                    <path d="M178.389,719.109C178.389,719.109 185.852,717.973 187.916,716.093C189.98,714.213 199.016,711.173 199.885,713.684C200.754,716.195 212.693,725.147 204.243,726.237C195.793,727.327 184.432,727.294 182.013,726.194C179.594,725.094 178.389,719.109 178.389,719.109Z" style="fill:rgb(168,168,168);fill-rule:nonzero;"/>
                </g>
                <g id="Path_112" transform="matrix(1,0,0,1,-56,-106.019)">
                    <path d="M204.285,725.321C195.836,726.411 184.474,726.378 182.055,725.278C180.213,724.44 179.076,720.772 178.638,719.069L178.389,719.109C178.389,719.109 179.589,725.093 182.013,726.194C184.437,727.295 195.794,727.327 204.243,726.237C206.682,725.922 207.42,724.952 207.219,723.671C206.973,724.489 206.1,725.087 204.285,725.321Z" style="fill-opacity:0.2;fill-rule:nonzero;"/>
                </g>
                <g id="Path_113" transform="matrix(1,0,0,1,-56,-106.019)">
                    <path d="M439.7,707.337C439.7,737.557 397.576,728.21 346,728.21C294.424,728.21 252.926,737.557 252.926,707.337C252.926,677.117 295.044,670.544 346.62,670.544C398.196,670.544 439.7,677.117 439.7,707.337Z" style="fill-opacity:0.1;fill-rule:nonzero;"/>
                </g>
                <g id="Path_114" transform="matrix(1,0,0,1,-56,-106.019)">
                    <path d="M439.7,699.9C439.7,730.12 397.576,720.773 346,720.773C294.424,720.773 252.926,730.12 252.926,699.9C252.926,669.68 295.04,663.1 346.616,663.1C398.192,663.1 439.7,669.676 439.7,699.9Z" style="fill:rgb(63,61,86);fill-rule:nonzero;"/>
                </g>
            </g>
            <g transform="matrix(1,0,0,1,-13.7847,-4.03274)">
                <g transform="matrix(0.12723,0,0,0.12723,727.363,167.667)">
                    <path d="M956.743,567.602C956.743,355.185 784.289,182.731 571.872,182.731C359.456,182.731 187.001,355.185 187.001,567.602C187.001,780.018 359.456,952.473 571.872,952.473C784.289,952.473 956.743,780.018 956.743,567.602Z" style="fill:rgb(220,216,227);"/>
                    <clipPath id="_clip1">
                        <path d="M956.743,567.602C956.743,355.185 784.289,182.731 571.872,182.731C359.456,182.731 187.001,355.185 187.001,567.602C187.001,780.018 359.456,952.473 571.872,952.473C784.289,952.473 956.743,780.018 956.743,567.602Z"/>
                    </clipPath>
                    <g clip-path="url(#_clip1)">
                        <g transform="matrix(0.895452,0,0,2.52977,106.227,-117.935)">
                            <rect x="90.205" y="118.851" width="859.613" height="304.273" style="fill:rgb(220,216,227);"/>
                        </g>
                    </g>
                </g>
                <g transform="matrix(1.58071,0,0,1.58071,798.724,240.138)">
                    <g transform="matrix(1,0,0,1,-18.5,-18.5)">
                        <g transform="matrix(1,0,0,1,0,75)">
                            <text x="0px" y="0px" style="font-family:'Helvetica';font-size:100px;fill:url(#_Linear2);">*</text>
                        </g>
                    </g>
                </g>
            </g>
            <g transform="matrix(1,0,0,1,-276.918,-82.656)">
                <g transform="matrix(0.12723,0,0,0.12723,727.363,167.667)">
                    <path d="M956.743,567.602C956.743,355.185 784.289,182.731 571.872,182.731C359.456,182.731 187.001,355.185 187.001,567.602C187.001,780.018 359.456,952.473 571.872,952.473C784.289,952.473 956.743,780.018 956.743,567.602Z" style="fill:rgb(220,216,227);"/>
                    <clipPath id="_clip3">
                        <path d="M956.743,567.602C956.743,355.185 784.289,182.731 571.872,182.731C359.456,182.731 187.001,355.185 187.001,567.602C187.001,780.018 359.456,952.473 571.872,952.473C784.289,952.473 956.743,780.018 956.743,567.602Z"/>
                    </clipPath>
                    <g clip-path="url(#_clip3)">
                        <g transform="matrix(0.895452,0,0,2.52977,106.227,-117.935)">
                            <rect x="90.205" y="118.851" width="859.613" height="304.273" style="fill:rgb(220,216,227);"/>
                        </g>
                    </g>
                </g>
                <g transform="matrix(1.58071,0,0,1.58071,798.724,240.138)">
                    <g transform="matrix(1,0,0,1,-18.5,-18.5)">
                        <g transform="matrix(1,0,0,1,0,75)">
                            <text x="0px" y="0px" style="font-family:'Helvetica';font-size:100px;fill:url(#_Linear4);">*</text>
                        </g>
                    </g>
                </g>
            </g>
            <g transform="matrix(1,0,0,1,114.237,184.326)">
                <g transform="matrix(0.12723,0,0,0.12723,727.363,167.667)">
                    <path d="M956.743,567.602C956.743,355.185 784.289,182.731 571.872,182.731C359.456,182.731 187.001,355.185 187.001,567.602C187.001,780.018 359.456,952.473 571.872,952.473C784.289,952.473 956.743,780.018 956.743,567.602Z" style="fill:rgb(220,216,227);"/>
                    <clipPath id="_clip5">
                        <path d="M956.743,567.602C956.743,355.185 784.289,182.731 571.872,182.731C359.456,182.731 187.001,355.185 187.001,567.602C187.001,780.018 359.456,952.473 571.872,952.473C784.289,952.473 956.743,780.018 956.743,567.602Z"/>
                    </clipPath>
                    <g clip-path="url(#_clip5)">
                        <g transform="matrix(0.895452,0,0,2.52977,106.227,-117.935)">
                            <rect x="90.205" y="118.851" width="859.613" height="304.273" style="fill:rgb(220,216,227);"/>
                        </g>
                    </g>
                </g>
                <g transform="matrix(1.58071,0,0,1.58071,798.724,240.138)">
                    <g transform="matrix(1,0,0,1,-18.5,-18.5)">
                        <g transform="matrix(1,0,0,1,0,75)">
                            <text x="0px" y="0px" style="font-family:'Helvetica';font-size:100px;fill:url(#_Linear6);">*</text>
                        </g>
                    </g>
                </g>
            </g>
            <g transform="matrix(1,0,0,1,-521.297,38.6904)">
                <g transform="matrix(0.12723,0,0,0.12723,727.363,167.667)">
                    <path d="M956.743,567.602C956.743,355.185 784.289,182.731 571.872,182.731C359.456,182.731 187.001,355.185 187.001,567.602C187.001,780.018 359.456,952.473 571.872,952.473C784.289,952.473 956.743,780.018 956.743,567.602Z" style="fill:rgb(220,216,227);"/>
                    <clipPath id="_clip7">
                        <path d="M956.743,567.602C956.743,355.185 784.289,182.731 571.872,182.731C359.456,182.731 187.001,355.185 187.001,567.602C187.001,780.018 359.456,952.473 571.872,952.473C784.289,952.473 956.743,780.018 956.743,567.602Z"/>
                    </clipPath>
                    <g clip-path="url(#_clip7)">
                        <g transform="matrix(0.895452,0,0,2.52977,106.227,-117.935)">
                            <rect x="90.205" y="118.851" width="859.613" height="304.273" style="fill:rgb(220,216,227);"/>
                        </g>
                    </g>
                </g>
                <g transform="matrix(1.58071,0,0,1.58071,798.724,240.138)">
                    <g transform="matrix(1,0,0,1,-18.5,-18.5)">
                        <g transform="matrix(1,0,0,1,0,75)">
                            <text x="0px" y="0px" style="font-family:'Helvetica';font-size:100px;fill:url(#_Linear8);">*</text>
                        </g>
                    </g>
                </g>
            </g>
            <g transform="matrix(2.55121,0,0,2.55121,-1604.32,-65.2457)">
                <g transform="matrix(0.12723,0,0,0.12723,727.363,167.667)">
                    <path d="M956.743,567.602C956.743,355.185 784.289,182.731 571.872,182.731C359.456,182.731 187.001,355.185 187.001,567.602C187.001,780.018 359.456,952.473 571.872,952.473C784.289,952.473 956.743,780.018 956.743,567.602Z" style="fill:rgb(220,216,227);"/>
                    <clipPath id="_clip9">
                        <path d="M956.743,567.602C956.743,355.185 784.289,182.731 571.872,182.731C359.456,182.731 187.001,355.185 187.001,567.602C187.001,780.018 359.456,952.473 571.872,952.473C784.289,952.473 956.743,780.018 956.743,567.602Z"/>
                    </clipPath>
                    <g clip-path="url(#_clip9)">
                        <g transform="matrix(0.895452,0,0,2.52977,106.227,-117.935)">
                            <rect x="90.205" y="118.851" width="859.613" height="304.273" style="fill:rgb(220,216,227);"/>
                        </g>
                    </g>
                </g>
                <g transform="matrix(1.58071,0,0,1.58071,798.724,240.138)">
                    <g transform="matrix(1,0,0,1,-18.5,-18.5)">
                        <g transform="matrix(1,0,0,1,0,75)">
                            <text x="0px" y="0px" style="font-family:'Helvetica';font-size:100px;fill:url(#_Linear10);">*</text>
                        </g>
                    </g>
                </g>
            </g>
        </g>
    </g>
    <defs>
        <linearGradient id="_Linear2" x1="0" y1="0" x2="1" y2="0" gradientUnits="userSpaceOnUse" gradientTransform="matrix(37,37,-37,37,0,-75)"><stop offset="0" style="stop-color:rgb(242,195,23);stop-opacity:1"/><stop offset="1" style="stop-color:rgb(255,81,232);stop-opacity:1"/></linearGradient>
        <linearGradient id="_Linear4" x1="0" y1="0" x2="1" y2="0" gradientUnits="userSpaceOnUse" gradientTransform="matrix(37,37,-37,37,0,-75)"><stop offset="0" style="stop-color:rgb(242,195,23);stop-opacity:1"/><stop offset="1" style="stop-color:rgb(255,81,232);stop-opacity:1"/></linearGradient>
        <linearGradient id="_Linear6" x1="0" y1="0" x2="1" y2="0" gradientUnits="userSpaceOnUse" gradientTransform="matrix(37,37,-37,37,0,-75)"><stop offset="0" style="stop-color:rgb(242,195,23);stop-opacity:1"/><stop offset="1" style="stop-color:rgb(255,81,232);stop-opacity:1"/></linearGradient>
        <linearGradient id="_Linear8" x1="0" y1="0" x2="1" y2="0" gradientUnits="userSpaceOnUse" gradientTransform="matrix(37,37,-37,37,0,-75)"><stop offset="0" style="stop-color:rgb(242,195,23);stop-opacity:1"/><stop offset="1" style="stop-color:rgb(255,81,232);stop-opacity:1"/></linearGradient>
        <linearGradient id="_Linear10" x1="0" y1="0" x2="1" y2="0" gradientUnits="userSpaceOnUse" gradientTransform="matrix(37,37,-37,37,0,-75)"><stop offset="0" style="stop-color:rgb(242,195,23);stop-opacity:1"/><stop offset="1" style="stop-color:rgb(255,81,232);stop-opacity:1"/></linearGradient>
    </defs>
</svg>
