<?xml version="1.0" encoding="UTF-8" standalone="no"?>
<!DOCTYPE svg PUBLIC "-//W3C//DTD SVG 1.1//EN" "http://www.w3.org/Graphics/SVG/1.1/DTD/svg11.dtd">
<svg width="100%" height="100%" viewBox="0 0 1042 555" version="1.1" xmlns="http://www.w3.org/2000/svg" xmlns:xlink="http://www.w3.org/1999/xlink" xml:space="preserve" xmlns:serif="http://www.serif.com/" style="fill-rule:evenodd;clip-rule:evenodd;stroke-linejoin:round;stroke-miterlimit:2;">
    <g transform="matrix(1,0,0,1,-440,-263)">
        <g id="Group_24">
            <g id="Group_23" transform="matrix(1,0,0,1,439.989,262.965)">
                <g id="Path_299" transform="matrix(1,0,0,1,-79.34,-172.91)">
                    <path d="M1040.82,611.12C1039.66,613.62 1038.5,616.087 1037.35,618.52C1035.55,622.3 1033.77,626.007 1032.02,629.64C1031.24,631.25 1030.46,632.83 1029.7,634.41C1021.1,651.98 1013.07,667.52 1006.25,680.3C993.662,703.855 969.146,718.723 942.44,719L790.79,720.65L789.19,720.65L776.19,720.79L765.07,720.91L730.97,721.28L729.59,721.28L712.23,721.47L711.7,721.47L604.7,722.63L509.19,723.63L498.08,723.75L429.08,724.5L429,724.5L384.25,724.98L383.77,724.98L242.27,726.51L199.94,726.97C196.336,727.011 192.732,726.831 189.15,726.43C187.93,726.29 186.71,726.13 185.5,725.94C165.762,722.893 147.653,713.17 134.21,698.4C116,678.37 102.75,655 93.85,629.64C92.563,625.98 91.363,622.273 90.25,618.52C59.44,514.37 97,380 164.6,290.08C167.433,286.32 170.313,282.653 173.24,279.08L173.31,279C194.1,253.48 217.41,232.16 242.24,217C286.24,190.09 334.99,182.51 382.94,205.1C423.51,224.22 461.39,233.21 498.11,235.65C501.82,235.89 505.53,236.07 509.22,236.18C593.45,238.83 672.39,208.48 765.09,188.89C768.78,188.11 772.48,187.34 776.21,186.61C842.34,173.45 915.7,166.51 1002.94,181.1C1012,182.581 1020.95,184.72 1029.7,187.5C1033.55,188.74 1037.25,190.073 1040.82,191.5C1082.46,208.44 1105.17,239.74 1114.82,278.96C1115.73,282.6 1116.52,286.303 1117.19,290.07C1134.3,384.41 1084.19,518.23 1040.82,611.12Z" style="fill:rgb(242,242,242);fill-rule:nonzero;"/>
                </g>
                <g id="Path_300" transform="matrix(1,0,0,1,-79.34,-172.91)">
                    <path d="M576.36,618.52C575.957,622.26 575.332,625.974 574.49,629.64L668.19,629.64L668.19,618.52L576.36,618.52ZM498.11,681.33L509.22,681.24L509.22,653.77C505.41,653.6 501.7,653.43 498.11,653.25L498.11,681.33ZM265.19,618.52L265.19,629.64L463.69,629.64L463.69,618.52L265.19,618.52ZM1114.87,279L1040.87,279L1040.87,191.51C1037.3,190.063 1033.6,188.73 1029.75,187.51L1029.75,279L776.21,279L776.21,186.58C772.48,187.31 768.78,188.08 765.09,188.86L765.09,279L509.22,279L509.22,236.15C505.53,236.04 501.82,235.86 498.11,235.62L498.11,279L242.24,279L242.24,217C217.41,232.16 194.1,253.48 173.31,279L173.24,279L173.24,279.08C170.307,282.68 167.427,286.347 164.6,290.08L173.24,290.08L173.24,618.52L90.24,618.52C91.347,622.273 92.547,625.98 93.84,629.64L173.23,629.64L173.23,723.26C177.224,724.482 181.302,725.414 185.43,726.05C186.64,726.24 187.86,726.4 189.08,726.54C192.662,726.941 196.266,727.121 199.87,727.08L242.2,726.62L242.2,629.62L498.11,629.62L498.11,723.83L509.22,723.71L509.22,629.64L765.09,629.64L765.09,721L776.21,720.88L776.21,629.64L1029.7,629.64L1029.7,634.41C1030.46,632.83 1031.24,631.25 1032.02,629.64C1033.77,626.007 1035.55,622.3 1037.35,618.52C1038.5,616.093 1039.66,613.627 1040.82,611.12L1040.82,290.12L1117.24,290.12C1116.57,286.327 1115.78,282.62 1114.87,279ZM242.24,618.52L242.24,290.08L498.11,290.08L498.11,618.52L242.24,618.52ZM509.24,618.52L509.24,290.08L765.09,290.08L765.09,618.52L509.24,618.52ZM1029.72,618.52L776.21,618.52L776.21,290.08L1029.7,290.08L1029.72,618.52Z" style="fill-opacity:0.1;fill-rule:nonzero;"/>
                </g>
                <path id="Path_301" d="M863.09,533.65L863.09,546.65L711.17,548.05L709.55,548.08L651.81,548.61L650.43,548.63L632.88,548.78L632.36,548.78L525.38,549.77L349.77,551.4L349.62,551.4L304.97,551.82L304.49,551.83L106.09,553.65L106.09,538.65L152.74,510.65L246.34,509.87L248.34,509.86L249,509.85L251,509.82L295.94,509.45L297.95,509.44L298.59,509.43L300.59,509.42L315,509.3L315.38,509.29L350.93,508.99L351.22,508.99L628.62,506.65L635.41,506.6L636.09,506.6L641.27,506.55L678.92,506.24L680.92,506.21L682.77,506.19L683.73,506.19L695.44,506.1L697.76,506.07L700.87,506.05L710.62,505.96L726.09,505.83L728.09,505.81L731.57,505.79L732.22,505.79L806.93,505.15L863.09,533.65Z" style="fill:rgb(101,97,125);fill-rule:nonzero;"/>
                <path id="Path_302" d="M863.09,533.65L863.09,546.65L711.17,548.05L709.55,548.08L651.81,548.61L650.43,548.63L632.88,548.78L632.36,548.78L525.38,549.77L349.77,551.4L349.62,551.4L304.97,551.82L304.49,551.83L106.09,553.65L106.09,538.65L152.74,510.65L246.34,509.87L248.34,509.86L249,509.85L251,509.82L295.94,509.45L297.95,509.44L298.59,509.43L300.59,509.42L315,509.3L315.38,509.29L350.93,508.99L351.22,508.99L628.62,506.65L635.41,506.6L636.09,506.6L641.27,506.55L678.92,506.24L680.92,506.21L682.77,506.19L683.73,506.19L695.44,506.1L697.76,506.07L700.87,506.05L710.62,505.96L726.09,505.83L728.09,505.81L731.57,505.79L732.22,505.79L806.93,505.15L863.09,533.65Z" style="fill-opacity:0.2;fill-rule:nonzero;"/>
                <g id="Path_303" transform="matrix(1,0,0,1,-79.34,-172.91)">
                    <path d="M375.44,656.57L375.44,681.06C375.441,683.424 374.075,685.586 371.94,686.6C371.16,686.978 370.307,687.183 369.44,687.2L334.54,687.94C333.608,687.962 332.683,687.767 331.84,687.37C329.666,686.374 328.267,684.191 328.27,681.8L328.27,656.57L375.44,656.57Z" style="fill:rgb(63,61,86);fill-rule:nonzero;"/>
                </g>
                <g id="Path_304" transform="matrix(1,0,0,1,-79.34,-172.91)">
                    <path d="M375.44,656.57L375.44,681.06C375.441,683.424 374.075,685.586 371.94,686.6C371.16,686.978 370.307,687.183 369.44,687.2L334.54,687.94C333.608,687.962 332.683,687.767 331.84,687.37C329.666,686.374 328.267,684.191 328.27,681.8L328.27,656.57L375.44,656.57Z" style="fill-opacity:0.1;fill-rule:nonzero;"/>
                </g>
                <g id="Path_305" transform="matrix(1,0,0,1,-79.34,-172.91)">
                    <path d="M377.44,656.57L377.44,681.06C377.441,683.424 376.075,685.586 373.94,686.6C373.16,686.978 372.307,687.183 371.44,687.2L336.54,687.94C335.608,687.962 334.683,687.767 333.84,687.37C331.666,686.374 330.267,684.191 330.27,681.8L330.27,656.57L377.44,656.57Z" style="fill:rgb(63,61,86);fill-rule:nonzero;"/>
                </g>
                <g id="Rectangle_137" transform="matrix(1,0,0,1,680.92,483.65)">
                    <rect x="0" y="0" width="47.17" height="31.5" style="fill:rgb(63,61,86);"/>
                </g>
                <g id="Rectangle_138" transform="matrix(1,0,0,1,680.92,483.65)">
                    <rect x="0" y="0" width="47.17" height="31.5" style="fill-opacity:0.1;"/>
                </g>
                <g id="Rectangle_139" transform="matrix(1,0,0,1,678.92,483.65)">
                    <rect x="0" y="0" width="47.17" height="31.5" style="fill:rgb(63,61,86);"/>
                </g>
                <path id="Path_306" d="M298.09,483.65L298.09,488.62L250.92,489.88L250.92,483.65L298.09,483.65Z" style="fill-opacity:0.1;fill-rule:nonzero;"/>
                <g id="Path_307" transform="matrix(1,0,0,1,-79.34,-172.91)">
                    <path d="M460.69,485.27L460.69,653.47C460.665,655.59 458.959,657.341 456.84,657.42L265.19,662.52L265.14,662.52C262.983,662.493 261.217,660.727 261.19,658.57L261.19,485.27C261.217,483.113 262.983,481.347 265.14,481.32L456.74,481.32C458.897,481.347 460.663,483.113 460.69,485.27Z" style="fill:rgb(101,97,125);fill-rule:nonzero;"/>
                </g>
                <g id="Path_308" transform="matrix(1,0,0,1,-79.34,-172.91)">
                    <path d="M265.19,481.32L265.19,662.52L265.14,662.52C262.983,662.493 261.217,660.727 261.19,658.57L261.19,485.27C261.217,483.113 262.983,481.347 265.14,481.32L265.19,481.32Z" style="fill-opacity:0.1;fill-rule:nonzero;"/>
                </g>
                <path id="Path_309" d="M194.59,319.15L372.09,319.15L372.09,467.4L194.59,471.4L194.59,319.15Z" style="fill:rgb(57,55,77);fill-rule:nonzero;"/>
                <path id="Path_310" d="M726.09,483.65L726.09,490.06L678.92,488.8L678.92,483.65L726.09,483.65Z" style="fill-opacity:0.1;fill-rule:nonzero;"/>
                <g id="Path_311" transform="matrix(1,0,0,1,-79.34,-172.91)">
                    <path d="M867.69,485.27L867.69,658.57C867.663,660.745 865.866,662.52 863.69,662.52L672,657.42C669.881,657.341 668.175,655.59 668.15,653.47L668.15,485.27C668.177,483.113 669.943,481.347 672.1,481.32L863.7,481.32C865.872,481.325 867.663,483.098 867.69,485.27Z" style="fill:rgb(101,97,125);fill-rule:nonzero;"/>
                </g>
                <g id="Path_312" transform="matrix(1,0,0,1,-79.34,-172.91)">
                    <path d="M867.69,485.27L867.69,658.57C867.663,660.745 865.866,662.52 863.69,662.52L863.69,481.32C865.866,481.32 867.663,483.095 867.69,485.27Z" style="fill-opacity:0.1;fill-rule:nonzero;"/>
                </g>
                <path id="Path_313" d="M775.59,319.15L598.09,319.15L598.09,467.4L775.59,471.4L775.59,319.15Z" style="fill:rgb(57,55,77);fill-rule:nonzero;"/>
                <g id="Path_314" transform="matrix(1,0,0,1,-79.34,-172.91)">
                    <path d="M663.19,485.27L663.19,653.47C663.165,655.59 661.459,657.341 659.34,657.42L467.69,662.52C465.514,662.52 463.717,660.745 463.69,658.57L463.69,485.27C463.717,483.113 465.483,481.347 467.64,481.32L659.24,481.32C661.397,481.347 663.163,483.113 663.19,485.27Z" style="fill:rgb(101,97,125);fill-rule:nonzero;"/>
                </g>
                <path id="Path_315" d="M397.09,319.15L574.59,319.15L574.59,467.4L397.09,471.4L397.09,319.15Z" style="fill:rgb(66,103,178);fill-rule:nonzero;"/>
                <path id="Path_316" d="M863.09,533.65L863.09,546.65L711.17,548.05L709.55,548.08L651.81,548.61L650.43,548.63L632.88,548.78L632.36,548.78L525.38,549.77L349.77,551.4L349.62,551.4L304.97,551.82L304.49,551.83L106.09,553.65L106.09,538.65L308.6,537.32L309.08,537.32L350.07,537.04L350.26,537.04L633.34,535.17L633.63,535.17L633.8,535.16L634.27,535.16L639.06,535.13L640.52,535.13L715.01,534.63L719.41,534.61L720.39,534.6L863.09,533.65Z" style="fill-opacity:0.1;fill-rule:nonzero;"/>
                <g id="Ellipse_111" transform="matrix(1,0,0,1,435.93,246.82)">
                    <circle cx="51.33" cy="51.33" r="51.33" style="fill:rgb(251,190,190);"/>
                </g>
                <g id="Path_317" transform="matrix(1,0,0,1,-79.34,-172.91)">
                    <path d="M617.94,550.07C617.94,550.07 518.44,562.07 527.94,550.07C531.38,545.73 532.33,532.87 532.14,518.22C532.08,513.77 531.92,509.16 531.69,504.57C530.59,482.57 527.94,461.07 527.94,461.07C527.94,461.07 614.94,420.07 604.94,452.57C600.94,465.7 602.25,484.14 605.29,501.45C606.18,506.5 607.21,511.45 608.29,516.15C610.926,527.614 614.147,538.935 617.94,550.07Z" style="fill:rgb(251,190,190);fill-rule:nonzero;"/>
                </g>
                <g id="Path_318" transform="matrix(1,0,0,1,-79.34,-172.91)">
                    <path d="M585.47,546C596.98,543.87 609.17,540 620,544.46C622.85,545.63 625.47,547.34 628.39,548.32C631.31,549.3 634.51,549.54 637.55,550.23C648.23,552.65 656.89,560.78 662.45,570.23C668.01,579.68 670.89,590.37 673.71,600.95L680.61,626.78C686.61,649.23 692.61,671.87 694,695.08C610.467,699.862 526.742,700.339 443.16,696.51C448.6,686.17 454.16,675.2 453.7,663.51C453.24,651.82 446.51,640.29 448.94,628.77C450.49,621.43 455.51,615.38 458.58,608.55C467.33,589.03 460.52,562.76 475.9,547.9C482.82,541.22 492.9,538.69 502.53,539.01C514.81,539.42 527.38,543.25 539.53,545.12C555.09,547.48 569.79,548.88 585.47,546Z" style="fill:rgb(255,101,132);fill-rule:nonzero;"/>
                </g>
                <g id="Path_319" transform="matrix(1,0,0,1,-79.34,-172.91)">
                    <path d="M716.37,657.17L716.27,658.6L716.27,658.7L716.1,661L714.77,679.51L713.16,701.81L712.7,708.09L711.7,721.53L711.7,721.7L604.7,722.7L429.11,724.6L429.11,725.44L428.97,725.44L428.97,724.32L429.42,709.96L430.28,681.9L431.02,658.11L431.09,655.74C431.263,650.088 435.96,645.532 441.615,645.532C441.914,645.532 442.212,645.545 442.51,645.57C447.23,645.97 453.36,646.46 460.69,646.98L463.69,647.2C506.02,650.14 584.25,653.94 663.19,649.2C664.85,649.11 666.52,649.01 668.19,648.89C680.43,648.12 692.66,647.13 704.77,645.89C705.135,645.852 705.501,645.833 705.867,645.833C711.644,645.833 716.397,650.586 716.397,656.363C716.397,656.615 716.388,656.868 716.37,657.12L716.37,657.17Z" style="fill-opacity:0.1;fill-rule:nonzero;"/>
                </g>
                <g id="Path_320" transform="matrix(1,0,0,1,-79.34,-172.91)">
                    <path d="M429.08,725.44L429.08,724.6L604.7,722.69L711.7,721.69L712,721.69L712,721.52L713,708.08L713.43,702.08L715.07,679.47L716.36,661.57L716.36,661.13C716.42,660.305 716.383,659.476 716.25,658.66C716.256,658.627 716.256,658.593 716.25,658.56C715.975,656.872 715.288,655.278 714.25,653.92C712.014,651.053 708.446,649.538 704.83,649.92C692.72,651.16 680.49,652.15 668.25,652.92C666.58,653.04 664.91,653.14 663.25,653.23C584.31,657.92 506.08,654.12 463.75,651.23L460.75,651.01C453.42,650.49 447.29,650.01 442.57,649.6C437.219,649.148 432.335,652.855 431.33,658.13C431.229,658.671 431.169,659.22 431.15,659.77L430.47,681.93L429.54,710L429.1,724.36L429.1,725.48L429.08,725.44Z" style="fill:rgb(63,61,86);fill-rule:nonzero;"/>
                </g>
                <g id="Path_321" transform="matrix(1,0,0,1,-79.34,-172.91)">
                    <path d="M716.67,664.18L715.44,679.51L713.61,702.36L713.15,708.08L712.15,720.89L712.09,721.53L712.09,721.7L711.94,723.18L712.05,721.7L711.76,721.7L604.76,722.7L429.11,724.6L429.11,724.32L429.6,709.96L430.6,681.9L431.24,663.25C431.304,661.097 432.458,659.117 434.3,658C435.432,657.306 436.757,656.991 438.08,657.1C440.18,657.27 442.76,657.47 445.77,657.69C450.66,658.05 456.69,658.47 463.71,658.91C476.71,659.73 493.02,660.61 511.71,661.33C563.71,663.33 633.91,664 700.59,658.16C703.59,657.9 706.69,657.61 709.72,657.32C710.919,657.2 712.128,657.43 713.2,657.98C713.504,658.131 713.792,658.312 714.06,658.52C714.93,659.151 715.62,659.999 716.06,660.98C716.162,661.175 716.246,661.379 716.31,661.59C716.61,662.418 716.733,663.301 716.67,664.18Z" style="fill-opacity:0.1;fill-rule:nonzero;"/>
                </g>
                <g id="Path_322" transform="matrix(1,0,0,1,-79.34,-172.91)">
                    <path d="M377.44,677.87L377.44,681.06C377.441,683.424 376.075,685.586 373.94,686.6L333.84,687.37C331.666,686.374 330.267,684.191 330.27,681.8L330.27,678.8L377.44,677.87Z" style="fill-opacity:0.1;fill-rule:nonzero;"/>
                </g>
                <path id="Path_323" d="M298.59,515.57L246.34,516.57L246.34,507.9L298.59,506.9L298.59,515.57Z" style="fill:rgb(63,61,86);fill-rule:nonzero;"/>
                <path id="Path_324" d="M298.59,515.57L246.34,516.57L246.34,507.9L298.59,506.9L298.59,515.57Z" style="fill-opacity:0.1;fill-rule:nonzero;"/>
                <path id="Path_325" d="M300.59,515.57L248.34,516.57L248.34,507.9L300.59,506.9L300.59,515.57Z" style="fill:rgb(63,61,86);fill-rule:nonzero;"/>
                <g id="Path_326" transform="matrix(1,0,0,1,-79.34,-172.91)">
                    <path d="M758.56,679.87L758.56,683.06C758.559,685.424 759.925,687.586 762.06,688.6L802.16,689.37C804.334,688.374 805.733,686.191 805.73,683.8L805.73,680.8L758.56,679.87Z" style="fill-opacity:0.1;fill-rule:nonzero;"/>
                </g>
                <path id="Path_327" d="M678.72,517.57L730.97,518.57L730.97,509.9L678.72,508.9L678.72,517.57Z" style="fill-opacity:0.1;fill-rule:nonzero;"/>
                <path id="Path_328" d="M676.72,517.57L728.97,518.57L728.97,509.9L676.72,508.9L676.72,517.57Z" style="fill:rgb(63,61,86);fill-rule:nonzero;"/>
                <g id="Path_329" transform="matrix(1,0,0,1,-79.34,-172.91)">
                    <path d="M534.13,486.79C534.21,493.79 530.97,500.39 528.22,506.86C518.208,530.427 513.871,556.02 515.56,581.57C516.29,592.57 518.14,603.57 516.29,614.47C514.44,625.37 507.86,636.24 497.29,639.37C514.82,649.82 538.55,648.72 555.05,636.71C563.84,630.31 570.39,621.38 576.8,612.6C576.039,628.371 571.472,643.726 563.49,657.35C592.654,654.768 619.391,639.92 637,616.53C641.31,610.72 645.06,604.34 646.72,597.3C649.81,584.3 645.5,570.79 642.21,557.8C639.461,546.941 637.4,535.919 636.04,524.8C635.61,521.24 635.26,517.58 636.14,514.1C637.14,510.03 639.81,506.59 641.78,502.88C647.38,492.34 647.51,479.58 644.64,468C641.77,456.42 636.15,445.74 630.58,435.19C626.12,426.73 621.28,417.88 613.12,412.91C608.02,409.81 602.12,408.52 596.24,407.27L570.87,401.84C565.32,400.65 559.61,399.46 554,400.33C544.53,401.81 537.86,408.65 532,415.67C527.41,421.13 516.19,431.38 515.4,438.53C514.68,445.12 520.5,456.16 521.49,463.11C522.79,472.11 523.71,469.11 528.79,474.63C532,478.05 534.07,482 534.13,486.79Z" style="fill:rgb(63,61,86);fill-rule:nonzero;"/>
                </g>
            </g>
            <g transform="matrix(1,0,0,1,440,263)">
                <g transform="matrix(0.135578,0,0,0.135578,205.796,318.286)">
                    <path d="M947.518,567.74C947.062,531.52 941.302,495.411 930.458,460.849C922.761,436.316 912.532,412.588 900.047,390.113C852.881,305.207 773.844,239.269 681.809,208.203C644.181,195.502 604.619,188.694 564.908,188.127C526.206,187.575 487.45,192.961 450.444,204.343C421.64,213.202 393.959,225.653 368.204,241.299C328.04,265.698 292.695,297.814 264.362,335.292C240.895,366.332 222.267,400.982 209.251,437.65C194.469,479.293 187.001,523.422 187.001,567.602C187.001,612.183 194.613,656.716 209.74,698.666C225.043,741.102 247.96,780.724 277.165,815.107C321.91,867.787 381.107,907.54 446.867,928.854C486.423,941.675 528.045,947.785 569.611,947.214C612.827,946.62 655.883,938.812 696.524,924.092C780.634,893.628 853.262,833.743 898.16,756.256C912.844,730.914 924.51,703.832 932.765,675.729C943.046,640.724 947.976,604.215 947.518,567.74Z" style="fill:rgb(220,216,227);"/>
                    <clipPath id="_clip1">
                        <path d="M947.518,567.74C947.062,531.52 941.302,495.411 930.458,460.849C922.761,436.316 912.532,412.588 900.047,390.113C852.881,305.207 773.844,239.269 681.809,208.203C644.181,195.502 604.619,188.694 564.908,188.127C526.206,187.575 487.45,192.961 450.444,204.343C421.64,213.202 393.959,225.653 368.204,241.299C328.04,265.698 292.695,297.814 264.362,335.292C240.895,366.332 222.267,400.982 209.251,437.65C194.469,479.293 187.001,523.422 187.001,567.602C187.001,612.183 194.613,656.716 209.74,698.666C225.043,741.102 247.96,780.724 277.165,815.107C321.91,867.787 381.107,907.54 446.867,928.854C486.423,941.675 528.045,947.785 569.611,947.214C612.827,946.62 655.883,938.812 696.524,924.092C780.634,893.628 853.262,833.743 898.16,756.256C912.844,730.914 924.51,703.832 932.765,675.729C943.046,640.724 947.976,604.215 947.518,567.74Z"/>
                    </clipPath>
                    <g clip-path="url(#_clip1)">
                        <g transform="matrix(0.895452,0,0,2.52977,106.227,-117.935)">
                            <path d="M934.265,123.118C652.912,121.695 371.558,120.273 90.205,118.851L90.205,423.124C375.059,421.739 659.913,420.353 944.767,418.967C941.266,320.351 937.765,221.734 934.265,123.118Z" style="fill:rgb(220,216,227);"/>
                        </g>
                        <g transform="matrix(12.424,0,0,12.424,560.872,569.602)">
                            <g transform="matrix(1,0,0,1,-18.5,-18.5)">
                                <g transform="matrix(1,0,0,1,0,75)">
                                    <g transform="matrix(100,0,0,100,0,0)">
                                        <path d="M0.215,-0.715C0.215,-0.715 0.215,-0.608 0.215,-0.608C0.215,-0.608 0.32,-0.644 0.32,-0.644C0.32,-0.644 0.34,-0.591 0.34,-0.591C0.34,-0.591 0.235,-0.557 0.235,-0.557C0.235,-0.557 0.301,-0.467 0.301,-0.467C0.301,-0.467 0.253,-0.432 0.253,-0.432C0.253,-0.432 0.189,-0.526 0.189,-0.526C0.189,-0.526 0.126,-0.432 0.126,-0.432C0.126,-0.432 0.077,-0.466 0.077,-0.466C0.077,-0.466 0.142,-0.557 0.142,-0.557C0.142,-0.557 0.036,-0.591 0.036,-0.591C0.036,-0.591 0.055,-0.645 0.055,-0.645C0.055,-0.645 0.16,-0.607 0.16,-0.607C0.16,-0.607 0.159,-0.715 0.159,-0.715C0.159,-0.715 0.215,-0.715 0.215,-0.715Z" style="fill:url(#_Linear2);fill-rule:nonzero;"/>
                                    </g>
                                </g>
                            </g>
                        </g>
                    </g>
                </g>
            </g>
            <g id="React-icon" transform="matrix(1,0,0,1,906.3,541.56)">
                <path id="Path_330" d="M263.668,117.179C263.668,111.352 256.368,105.829 245.181,102.404C247.763,91.004 246.615,81.927 241.559,79.022C240.334,78.336 238.947,77.991 237.543,78.022L237.543,82.022C238.253,82 238.957,82.16 239.587,82.488C242.026,83.888 243.087,89.212 242.259,96.062C242.059,97.747 241.739,99.523 241.345,101.334C237.597,100.431 233.793,99.778 229.959,99.38C227.675,96.229 225.183,93.234 222.5,90.415C228.345,84.982 233.832,82.005 237.562,82.005L237.562,78C232.631,78 226.176,81.514 219.649,87.611C213.122,81.55 206.667,78.072 201.736,78.072L201.736,82.072C205.448,82.072 210.952,85.031 216.798,90.428C214.128,93.237 211.654,96.227 209.393,99.375C205.552,99.769 201.743,100.428 197.993,101.347C197.581,99.554 197.276,97.815 197.061,96.147C196.218,89.297 197.261,83.972 199.679,82.555C200.312,82.217 201.024,82.056 201.741,82.089L201.741,78.089C200.326,78.058 198.927,78.403 197.689,79.089C192.65,81.989 191.521,91.049 194.121,102.417C182.968,105.86 175.706,111.364 175.706,117.174C175.706,123.002 183.006,128.524 194.193,131.949C191.611,143.349 192.759,152.426 197.815,155.331C199.046,156.019 200.439,156.365 201.849,156.331C206.78,156.331 213.235,152.817 219.762,146.72C226.289,152.781 232.744,156.259 237.675,156.259C239.09,156.29 240.489,155.945 241.727,155.259C246.766,152.359 247.895,143.299 245.295,131.931C256.406,128.511 263.668,122.988 263.668,117.179ZM240.322,105.219C239.659,107.532 238.834,109.919 237.901,112.302C237.166,110.868 236.395,109.433 235.552,108.002C234.727,106.568 233.852,105.169 232.97,103.802C235.517,104.179 237.974,104.645 240.323,105.219L240.322,105.219ZM232.11,124.319C230.71,126.74 229.277,129.035 227.789,131.169C225.117,131.402 222.41,131.528 219.689,131.528C216.981,131.528 214.274,131.402 211.62,131.187C210.132,129.054 208.686,126.782 207.281,124.373C205.918,122.024 204.675,119.646 203.551,117.237C204.663,114.837 205.918,112.432 207.263,110.083C208.663,107.662 210.096,105.367 211.584,103.233C214.256,103 216.963,102.874 219.684,102.874C222.392,102.874 225.099,103 227.753,103.215C229.241,105.348 230.687,107.62 232.092,110.029C233.455,112.378 234.698,114.756 235.822,117.165C234.692,119.564 233.455,121.966 232.11,124.315L232.11,124.319ZM237.902,121.988C238.87,124.388 239.695,126.793 240.376,129.124C238.027,129.698 235.553,130.182 232.989,130.558C233.868,129.177 234.746,127.758 235.571,126.308C236.4,124.871 237.167,123.419 237.9,121.984L237.902,121.988ZM219.72,141.116C217.961,139.29 216.297,137.375 214.735,135.378C216.349,135.45 217.998,135.504 219.666,135.504C221.351,135.504 223.019,135.468 224.651,135.378C223.112,137.378 221.466,139.294 219.72,141.116ZM206.38,130.555C203.834,130.178 201.38,129.712 199.028,129.138C199.691,126.825 200.516,124.438 201.449,122.055C202.184,123.489 202.955,124.924 203.798,126.355C204.641,127.786 205.5,129.192 206.38,130.555ZM219.63,93.241C221.389,95.067 223.053,96.982 224.615,98.979C223.001,98.907 221.352,98.853 219.684,98.853C217.998,98.853 216.331,98.889 214.699,98.979C216.238,96.979 217.884,95.063 219.63,93.241ZM206.362,103.8C205.483,105.181 204.605,106.6 203.78,108.05C202.955,109.484 202.18,110.919 201.449,112.35C200.481,109.95 199.656,107.545 198.975,105.214C201.323,104.663 203.8,104.179 206.362,103.8ZM190.135,126.249C183.787,123.541 179.681,119.991 179.681,117.176C179.681,114.361 183.787,110.793 190.135,108.103C191.677,107.44 193.363,106.848 195.102,106.292C196.199,110.019 197.547,113.667 199.136,117.212C197.563,120.739 196.233,124.37 195.155,128.078C193.38,127.525 191.694,126.915 190.134,126.252L190.135,126.249ZM199.782,151.872C197.343,150.472 196.282,145.148 197.11,138.298C197.31,136.612 197.63,134.837 198.024,133.026C201.772,133.929 205.576,134.582 209.41,134.98C211.694,138.131 214.186,141.126 216.869,143.945C211.024,149.378 205.537,152.355 201.807,152.355C201.102,152.364 200.406,152.199 199.781,151.875L199.782,151.872ZM242.314,138.209C243.157,145.059 242.114,150.384 239.696,151.801C239.063,152.139 238.351,152.3 237.634,152.267C233.922,152.267 228.418,149.308 222.572,143.911C225.242,141.102 227.716,138.112 229.977,134.964C233.818,134.57 237.627,133.911 241.377,132.992C241.781,134.714 242.093,136.457 242.313,138.212L242.314,138.209ZM249.214,126.249C247.672,126.912 245.986,127.504 244.247,128.06C243.15,124.333 241.802,120.685 240.213,117.14C241.786,113.613 243.116,109.982 244.194,106.274C245.969,106.83 247.655,107.439 249.233,108.103C255.581,110.811 259.687,114.361 259.687,117.176C259.67,119.994 255.564,123.562 249.216,126.252L249.214,126.249Z" style="fill:rgb(97,218,251);fill-rule:nonzero;"/>
                <g id="Ellipse_112" transform="matrix(1,0,0,1,211.472,108.984)">
                    <circle cx="8.194" cy="8.194" r="8.194" style="fill:rgb(97,218,251);"/>
                </g>
            </g>
        </g>
    </g>
    <defs>
        <linearGradient id="_Linear2" x1="0" y1="0" x2="1" y2="0" gradientUnits="userSpaceOnUse" gradientTransform="matrix(0.37,0.37,-0.37,0.37,0,-0.75)"><stop offset="0" style="stop-color:rgb(242,195,23);stop-opacity:1"/><stop offset="1" style="stop-color:rgb(255,81,232);stop-opacity:1"/></linearGradient>
    </defs>
</svg>
